<svg width="18" height="20" viewBox="0 0 18 20" fill="none" xmlns="http://www.w3.org/2000/svg">
<path fill-rule="evenodd" clip-rule="evenodd" d="M0.0983388 0.754982C0.0345862 0.940077 0 1.15649 0 1.40126V18.5983C0 18.8436 0.0346291 19.0601 0.0984575 19.2452L9.34282 9.99947L0.0983388 0.754982ZM0.799202 19.9586C1.12825 20.053 1.53577 19.9885 1.97583 19.739L12.8838 13.5405L10.0499 10.7066L0.799202 19.9586ZM13.7861 13.0286L17.1395 11.1234C18.2257 10.5052 18.2257 9.49512 17.1395 8.87772L13.7846 6.97138L10.757 9.99942L13.7861 13.0286ZM12.8828 6.45897L1.97583 0.261327C1.53572 0.0112264 1.12817 -0.0530058 0.799095 0.0415248L10.0499 9.29231L12.8828 6.45897Z" fill="#242424" fill-opacity="0.38"/>
</svg>
