<svg width="17" height="20" viewBox="0 0 17 20" fill="none" xmlns="http://www.w3.org/2000/svg">
<path d="M13.5905 10.6359C13.6104 9.09202 14.4396 7.63115 15.7549 6.82249C14.9251 5.6374 13.5352 4.88602 12.0892 4.84078C10.5469 4.67889 9.05177 5.76366 8.26584 5.76366C7.46471 5.76366 6.25466 4.85685 4.95163 4.88366C3.25319 4.93853 1.66982 5.90417 0.843494 7.38906C-0.93278 10.4644 0.39216 14.9841 2.09368 17.47C2.94499 18.6873 3.93992 20.047 5.24178 19.9988C6.51572 19.9459 6.99151 19.1864 8.52926 19.1864C10.0527 19.1864 10.4991 19.9988 11.8274 19.9681C13.1944 19.9459 14.0557 18.7454 14.8771 17.5166C15.4888 16.6493 15.9594 15.6907 16.2717 14.6763C14.6652 13.9969 13.5924 12.3802 13.5905 10.6359Z" fill="#242424" fill-opacity="0.38"/>
<path d="M11.0816 3.20595C11.827 2.31119 12.1942 1.16113 12.1053 0C10.9666 0.1196 9.9147 0.663834 9.15928 1.52426C8.42059 2.36494 8.03617 3.49477 8.10885 4.61152C9.24798 4.62325 10.3678 4.09376 11.0816 3.20595Z" fill="#242424" fill-opacity="0.38"/>
</svg>
