<svg width="114" height="37" viewBox="0 0 114 37" fill="none" xmlns="http://www.w3.org/2000/svg">
<path d="M17.8236 0C14.2981 0.000534232 10.8518 1.07367 7.92062 3.08372C4.98945 5.09376 2.70502 7.95044 1.3562 11.2925C0.00737201 14.6346 -0.345272 18.312 0.342856 21.8597C1.03098 25.4074 2.72898 28.6661 5.22213 31.2238C7.71528 33.7814 10.8916 35.5231 14.3495 36.2286C17.8074 36.9341 21.3915 36.5717 24.6487 35.1873C27.9059 33.8029 30.6898 31.4586 32.6485 28.4509C34.6071 25.4432 35.6525 21.9072 35.6525 18.2899C35.647 13.4404 33.7667 8.79121 30.4243 5.36235C27.0818 1.93349 22.5502 0.00500422 17.8236 0ZM19.8956 25.4292C18.1157 27.7445 15.5259 29.2562 12.6766 29.6431C12.6766 29.6431 14.7512 28.8327 16.7205 25.5021C18.6056 21.9771 18.7662 19.3137 20.5406 17.0257C23.5393 13.1576 27.4042 14.0733 27.4042 14.0733C26.9592 12.6255 25.6481 11.7341 23.7868 11.8178C23.1813 9.8054 20.5617 9.05986 18.6951 10.0566C17.3076 10.794 15.8175 11.8637 14.1536 11.8286C13.9681 11.8326 13.7826 11.8245 13.5981 11.8043C12.5604 11.6402 11.6029 11.1338 10.8706 10.3618C10.7547 12.0231 11.7973 13.579 13.0294 14.0976C15.1356 14.9809 16.6231 13.9085 16.6231 13.9085C15.2928 17.5076 12.8996 20.5902 9.778 22.7253C6.26329 20.9398 3.94648 17.6875 3.45943 13.2062C4.63004 9.72762 6.96608 6.78827 10.0515 4.91165C13.1369 3.03504 16.7714 2.34299 20.3077 2.95877C23.8439 3.57456 27.0523 5.45818 29.3615 8.27419C31.6707 11.0902 32.9307 14.6557 32.9171 18.3358C32.9171 18.5087 32.9171 18.6789 32.9171 18.8517C31.466 20.9886 29.5103 22.7128 27.2329 23.8631C24.9556 25.0134 22.4311 25.5523 19.8956 25.4292Z" fill="#FF5800"/>
<path d="M70.8075 19.818C70.8075 21.228 70.4565 22.3085 69.7544 23.0595C69.0524 23.8104 68.1142 24.1805 66.94 24.1697C65.8869 24.1697 65.0725 23.8491 64.4969 23.208C63.9212 22.5669 63.6342 21.6044 63.6359 20.3204V13.3108H60.3477V20.7391C60.3477 22.8749 60.89 24.4758 61.9747 25.5419C63.0594 26.6079 64.5434 27.141 66.4266 27.141C67.2684 27.1478 68.1034 26.9873 68.8856 26.6683C69.6185 26.3647 70.2754 25.8957 70.8075 25.2961V26.3009C70.8075 27.783 70.4679 28.8815 69.7887 29.5964C69.1094 30.3113 68.0484 30.6715 66.6057 30.6769C65.8249 30.6814 65.0512 30.5243 64.331 30.215C63.5294 29.9455 62.7852 29.522 62.1379 28.967L60.6557 31.5169C61.5034 32.2343 62.4908 32.7574 63.5517 33.0512C64.5953 33.4107 65.6891 33.5932 66.79 33.5915C71.6711 33.5915 74.1116 31.0424 74.1116 25.9443V13.3108H70.8075V19.818Z" fill="#FF5800"/>
<path d="M92.2931 13.3108L87.0355 22.3679L82.0123 13.3108H78.5476V27.792H81.5621V18.1649L86.2405 26.2739H87.6674L92.4274 18.1919V27.792H95.4129L95.3866 13.3108H92.2931Z" fill="#FF5800"/>
<path d="M112.842 16.7262C112.203 15.6103 111.274 14.6992 110.159 14.0952C108.958 13.4719 107.632 13.1471 106.286 13.1471C104.941 13.1471 103.614 13.4719 102.413 14.0952C101.298 14.6984 100.368 15.6097 99.7306 16.7262C99.078 17.8872 98.745 19.2083 98.767 20.5484C98.7457 21.8935 99.0786 23.2196 99.7306 24.3868C100.365 25.509 101.295 26.4254 102.413 27.0313C103.614 27.6546 104.941 27.9794 106.286 27.9794C107.632 27.9794 108.958 27.6546 110.159 27.0313C111.277 26.4245 112.206 25.5083 112.842 24.3868C113.494 23.2196 113.827 21.8935 113.805 20.5484C113.827 19.2083 113.494 17.8872 112.842 16.7262ZM109.285 23.8303C108.479 24.6311 107.4 25.0788 106.278 25.0788C105.156 25.0788 104.078 24.6311 103.272 23.8303C102.487 22.9984 102.096 21.9044 102.097 20.5484C102.099 19.1924 102.491 18.0984 103.272 17.2664C104.079 16.4676 105.157 16.0212 106.278 16.0212C107.4 16.0212 108.478 16.4676 109.285 17.2664C110.078 18.0984 110.475 19.1924 110.475 20.5484C110.475 21.9044 110.078 22.9984 109.285 23.8303Z" fill="#FF5800"/>
<path d="M51.0923 17.9173L56.8133 9.52734H52.7904L48.9256 15.1513L45.0581 9.52734H41.0879L46.8615 18.0551L40.593 27.1852H44.5605L48.9256 20.8751L53.3144 27.1852H55.3968V27.7902H55.3995V31.5287H58.3376V24.8081H55.7786L51.0923 17.9173Z" fill="#FF5800"/>
</svg>
